inDegrees=no
num_controls=7
num_derivatives=13
num_iterations=210
num_multipliers=7
num_parameters=0
num_slacks=7
num_states=26
objective=0.509357
objective_accelerations=0.040877
objective_balance=0.003675
objective_effort=0.029504
objective_height=0.322641
objective_ligament=0.112659
solver_duration=2588.554736
status=Solve_Succeeded
success=true
DataType=double
version=3
OpenSimVersion=4.5
endheader
time	/jointset/ground_pelvis/pelvis_tilt/value	/jointset/ground_pelvis/pelvis_tx/value	/jointset/ground_pelvis/pelvis_ty/value	/jointset/hip_l/hip_flexion_l/value	/jointset/hip_l/hip_adduction_l/value	/jointset/hip_l/hip_rotation_l/value	/jointset/back/lumbar_extension/value	/jointset/patellofemoral_l/patellar_flexion_l/value	/jointset/knee_l/knee_flexion_l/value	/jointset/knee_l/knee_adduction_l/value	/jointset/knee_l/knee_rotation_l/value	/jointset/ankle_l/ankle_angle_l/value	/jointset/subtalar_l/subtalar_angle_l/value	/jointset/ground_pelvis/pelvis_tilt/speed	/jointset/ground_pelvis/pelvis_tx/speed	/jointset/ground_pelvis/pelvis_ty/speed	/jointset/hip_l/hip_flexion_l/speed	/jointset/hip_l/hip_adduction_l/speed	/jointset/hip_l/hip_rotation_l/speed	/jointset/back/lumbar_extension/speed	/jointset/patellofemoral_l/patellar_flexion_l/speed	/jointset/knee_l/knee_flexion_l/speed	/jointset/knee_l/knee_adduction_l/speed	/jointset/knee_l/knee_rotation_l/speed	/jointset/ankle_l/ankle_angle_l/speed	/jointset/subtalar_l/subtalar_angle_l/speed	/forceset/tau_hip_flexion_l	/forceset/tau_hip_adduction_l	/forceset/tau_hip_rotation_l	/forceset/tau_knee_flexion_l	/forceset/tau_ankle_angle_l	/forceset/tau_subtalar_angle_l	/forceset/tau_lumbar_extension	lambda_cid13_p0	lambda_cid13_p1	lambda_cid13_p2	lambda_cid13_p3	lambda_cid13_p4	lambda_cid13_p5	lambda_cid14_p0	/jointset/ground_pelvis/pelvis_tilt/accel	/jointset/ground_pelvis/pelvis_tx/accel	/jointset/ground_pelvis/pelvis_ty/accel	/jointset/hip_l/hip_flexion_l/accel	/jointset/hip_l/hip_adduction_l/accel	/jointset/hip_l/hip_rotation_l/accel	/jointset/back/lumbar_extension/accel	/jointset/patellofemoral_l/patellar_flexion_l/accel	/jointset/knee_l/knee_flexion_l/accel	/jointset/knee_l/knee_adduction_l/accel	/jointset/knee_l/knee_rotation_l/accel	/jointset/ankle_l/ankle_angle_l/accel	/jointset/subtalar_l/subtalar_angle_l/accel	gamma_cid13_p0	gamma_cid13_p1	gamma_cid13_p2	gamma_cid13_p3	gamma_cid13_p4	gamma_cid13_p5	gamma_cid14_p0
0	-0.01696063354864859	0.04722562213933047	0.9233399940457578	0.3085816938045678	-0.2604861497250352	-0.3179134639757342	-0.3879492264334186	0.2499269421184939	0.2499269421184919	-0.1006726185684424	-0.1745281288697715	-0.0008036623358878681	0.03721353461128226	0	0	0	0	0	0	0	0	0	0	0	0	0	0.09935293237115554	-0.04062744700864587	-0.01608583953405899	-0.2900063870082755	0.2557417577809566	-0.03913193010785165	-0.01210698511824719	36.4941778543424	9.869792081177392	-1.187888175450118	5.272978050799571	-632.5066341841945	-59.78953570190219	-22.93191872952784	-1.610578800117898	-1.981479198072033	-0.8440370748420188	8.509653561817547	-0.39990623130457	2.112993652537627	-6.886463337680646	6.987437785286218	6.987437785287017	1.534424987457867	-0.03041787040711694	0.5183564772176036	-0.2521040873478171	1.887136074958298e-08	1.036804337553947e-07	-4.355472700121135e-08	-7.405004083662997e-09	9.347023788255763e-08	5.039721718610329e-08	1.571797804672079e-08
0.01	-0.01703698801666587	0.04712791080898177	0.9232986938963862	0.3089966289744122	-0.2605069796403941	-0.3178072429610683	-0.3882908541774814	0.250269964218526	0.2502699642185266	-0.1006000642456196	-0.1745277701983095	-0.0007787372898521742	0.03719967923053746	-0.01514609189122909	-0.01942199090331813	-0.008225932398651157	0.08250055040345997	-0.004216037471510506	0.02117508970048669	-0.06774746341470285	0.06831516691361551	0.06831516691361868	0.01430033468027503	6.74899126940573e-05	0.004999695593354803	-0.002817176387835092	0.0898674323167263	-0.04617051577554627	-0.01535306189349222	-0.2791922982520988	0.2399457728042561	-0.02721012613913135	-0.004066908657045434	31.87275993333585	5.400255626544598	-0.3598716345817818	6.535366393137249	-635.0315888324109	-68.15657027547361	-22.93637535111317	-1.447906259116466	-1.904519242397967	-0.8067380069701385	8.047282800105824	-0.4399722069856178	2.109412101417686	-6.632175033699325	6.710165036921842	6.710165036921921	1.346271906102259	0.0246846041378418	0.4929828866861947	-0.3034509618904906	6.305697814056217e-09	1.045659799112048e-07	-6.350897552089172e-09	6.90826605347372e-09	2.799688131757853e-08	3.128615665176688e-08	1.312915683106401e-08
0.02	-0.01726105977869623	0.04683958752841297	0.9231761610861088	0.3102219750523915	-0.2605714738708491	-0.317491341954875	-0.3892926139937593	0.2512874597661983	0.2512874597661988	-0.1003908197364379	-0.1745268661913194	-0.0007033739306244759	0.03715626677643646	-0.02954345880209214	-0.0381223900440197	-0.0162465321810979	0.1620821816267547	-0.0087328630194721	0.04193599830551231	-0.1320264144427825	0.1348946895281364	0.1348946895281403	0.02733803727214831	0.0001090671065954738	0.01008766263838132	-0.005911414671234664	0.08038193226230177	-0.05171358454244857	-0.01462028425292325	-0.2683782094959314	0.2241497878275479	-0.0152883221704159	0.003973167804165471	27.30950188515019	0.9229168222352299	0.4666699051881904	7.755630197009118	-636.6604813875958	-76.43947439487532	-22.94956295789197	-1.46083380404472	-1.837160845548683	-0.8029705516011357	7.925869725784499	-0.4600638465947903	2.0301574334454	-6.192760860356025	6.640308925467299	6.640308925467621	1.28189856977752	-0.03560041416565654	0.5360107675519955	-0.3075164664606966	-6.259965121470543e-09	1.054515260670149e-07	3.0852931897033e-08	2.122153619061044e-08	-3.747647524740058e-08	1.217509611743048e-08	1.054033561540723e-08
0.03	-0.01762627016225471	0.04636824101730438	0.9229742420292267	0.3122293506264758	-0.2606826012477905	-0.3169700148458978	-0.3909213157801689	0.2529624160495542	0.2529624160495542	-0.1000574363589455	-0.1745257599983434	-0.0005762037498221615	0.03708074768684899	-0.0434402779591487	-0.05598878608189507	-0.02411987459769848	0.2389527848216242	-0.01354690607815451	0.06227060536440188	-0.1933120382540205	0.1998351980101821	0.1998351980101792	0.03911497901876224	0.0001167340264024742	0.01540922854235743	-0.009225383599389222	0.07680436654730385	-0.04815190116552355	-0.01453522478798603	-0.2681633688294347	0.2276363301943497	-0.01800483342714892	0.007841109122215795	28.29550537427005	1.939222719439524	0.294171572708277	5.757849135883632	-637.8685221917909	-73.78521720464443	-22.97108230370019	-1.345355594332948	-1.737655766272349	-0.776913156878877	7.501631666133411	-0.5002373207990478	2.02628970126821	-6.036177453787716	6.381714342057518	6.381714342056419	1.092063013322665	0.01963685278667348	0.5396607022650353	-0.3483044285758897	-2.010209924270366e-08	5.854631474800474e-08	6.476307955439871e-08	3.082803354171719e-08	-1.021995865297645e-07	-1.556266582791131e-08	2.077470616784936e-09
0.04	-0.01812869866194792	0.04572297518914431	0.9226941101341406	0.3149922274424709	-0.2608435016123766	-0.3162471061945014	-0.3931508166671475	0.2552789359242281	0.2552789359242292	-0.09961298935674462	-0.1745244398146216	-0.0003939316698912532	0.03697109544346332	-0.05698708202806936	-0.07290625345431889	-0.03188909982193222	0.313182430008314	-0.01868746054859887	0.08225230678958964	-0.2521862345564677	0.2632074077916003	0.2632074077915914	0.04955076221415052	0.000151865255521792	0.02110804246411856	-0.012738045430865	0.07322680083234277	-0.04459021778859824	-0.01445016532304416	-0.267948528162927	0.2311228725611519	-0.02072134468388152	0.01170905044029409	29.33530316214782	2.948397147885928	0.1201979133910506	3.713282076594338	-638.2575771559616	-71.04941272178132	-23.00042002247159	-1.39083078641757	-1.647375112458325	-0.7821471131277671	7.397678124148579	-0.5253661289471856	1.95957630670502	-5.710475358597884	6.326649185341807	6.326649185342294	1.013666859532392	-0.03010755230321066	0.6114603711090598	-0.3472550471249219	-3.397055235745651e-08	1.065572698621475e-08	9.860531624698595e-08	4.033748403125632e-08	-1.669072288372292e-07	-4.34782979054388e-08	-6.506508686640769e-09
0.05	-0.01876475198879656	0.04491292326399654	0.9223366704335451	0.3184846438825447	-0.2610572034971509	-0.3153270174678554	-0.3959564313470003	0.258221341823243	0.2582213418232421	-0.09907043708141915	-0.1745233875291958	-0.0001532578325840214	0.03682540255069608	-0.07013461638058981	-0.08898111497293551	-0.03959158632449985	0.3848767719661542	-0.0240850928072548	0.1017018453725099	-0.3085005379609572	0.3250026704760012	0.3250026704760117	0.05876595508118856	6.896457638322149e-05	0.02704263373115559	-0.01642814454289363	0.06605277492901286	-0.04310365688567454	-0.01398804239794953	-0.2620690216792667	0.2248115225892861	-0.01811312385768898	0.0178756821874996	27.45017883355515	2.071808409537107	0.3443726971410278	3.696334781343847	-638.7980569750191	-71.8771642603883	-23.03696282367916	-1.263367785159734	-1.569081036727646	-0.7632452272497378	6.991697629692822	-0.5517981362440029	1.928087345049155	-5.52648331346993	6.065300950362674	6.065300950365342	0.846393759080046	0.004192323768597209	0.5868435963100529	-0.3840416855364311	-4.2412633690414e-08	-1.884864437397792e-08	1.173675125111836e-07	4.704188483419057e-08	-2.101857349777474e-07	-5.808820875697015e-08	-1.146571996112581e-08
